<?xml version="1.0" encoding="UTF-8" standalone="no"?>
<!-- Created with Inkscape (http://www.inkscape.org/) -->
<svg
   xmlns:dc="http://purl.org/dc/elements/1.1/"
   xmlns:cc="http://web.resource.org/cc/"
   xmlns:rdf="http://www.w3.org/1999/02/22-rdf-syntax-ns#"
   xmlns:svg="http://www.w3.org/2000/svg"
   xmlns="http://www.w3.org/2000/svg"
   xmlns:xlink="http://www.w3.org/1999/xlink"
   xmlns:sodipodi="http://sodipodi.sourceforge.net/DTD/sodipodi-0.dtd"
   xmlns:inkscape="http://www.inkscape.org/namespaces/inkscape"
   width="250"
   height="250"
   id="svg2"
   sodipodi:version="0.32"
   inkscape:version="0.45.1"
   version="1.0"
   sodipodi:docbase="C:\Documents and Settings\Jop\Dokumenter\TheLastRipper\trunk"
   sodipodi:docname="AboutBox.svg"
   inkscape:output_extension="org.inkscape.output.svg.inkscape"
   inkscape:export-filename="/home/jopsen/Development/TheLastRipperProject/AboutBox.png"
   inkscape:export-xdpi="90"
   inkscape:export-ydpi="90">
  <defs
     id="defs4">
    <linearGradient
       id="linearGradient3327">
      <stop
         style="stop-color:#ffdf2c;stop-opacity:1;"
         offset="0"
         id="stop3329" />
      <stop
         style="stop-color:#ffffff;stop-opacity:1;"
         offset="1"
         id="stop3331" />
    </linearGradient>
    <radialGradient
       gradientTransform="matrix(1.312684,0,0,1.312684,-26.27567,-106.2884)"
       r="107.2917"
       cy="16.075199"
       cx="46.063999"
       gradientUnits="userSpaceOnUse"
       id="radialGradient3029"
       xlink:href="#XMLID_2_"
       inkscape:collect="always" />
    <radialGradient
       r="107.2917"
       cy="16.075199"
       cx="46.063999"
       gradientUnits="userSpaceOnUse"
       id="radialGradient3011"
       xlink:href="#XMLID_2_"
       inkscape:collect="always" />
    <linearGradient
       y2="43765.074"
       x2="4068.7859"
       y1="39816.609"
       x1="4068.7859"
       gradientUnits="userSpaceOnUse"
       id="linearGradient2915"
       xlink:href="#linearGradient2902"
       inkscape:collect="always" />
    <linearGradient
       gradientUnits="userSpaceOnUse"
       y2="44120.316"
       x2="4068.7859"
       y1="39816.609"
       x1="4068.7859"
       id="linearGradient2908"
       xlink:href="#linearGradient2902"
       inkscape:collect="always" />
    <marker
       refX="0"
       refY="0"
       orient="auto"
       style="overflow:visible"
       id="Arrow1Mstart">
      <path
         d="M 0,0 L 5,-5 L -12.5,0 L 5,5 L 0,0 z "
         transform="matrix(0.4,0,0,0.4,4,0)"
         style="fill-rule:evenodd;stroke:black;stroke-width:1pt;marker-start:none"
         id="path3845" />
    </marker>
    <marker
       refX="0"
       refY="0"
       orient="auto"
       style="overflow:visible"
       id="Arrow2Lstart">
      <path
         d="M 8.7185878,4.0337352 L -2.2072895,0.016013256 L 8.7185884,-4.0017078 C 6.97309,-1.6296469 6.9831476,1.6157441 8.7185878,4.0337352 z "
         transform="matrix(1.1,0,0,1.1,1.1,0)"
         style="font-size:12px;fill-rule:evenodd;stroke-width:0.625;stroke-linejoin:round"
         id="path3833" />
    </marker>
    <linearGradient
       gradientUnits="userSpaceOnUse"
       y2="5526.2969"
       x2="4225.3442"
       y1="20004.281"
       x1="4225.3442"
       id="linearGradient2858"
       xlink:href="#linearGradient2852"
       inkscape:collect="always" />
    <radialGradient
       r="107.2917"
       cy="16.075199"
       cx="46.063999"
       gradientUnits="userSpaceOnUse"
       id="radialGradient1952"
       xlink:href="#XMLID_2_"
       inkscape:collect="always" />
    <linearGradient
       y2="9104.5381"
       x2="4151.3369"
       y1="-502.92627"
       x1="4151.3369"
       gradientUnits="userSpaceOnUse"
       id="linearGradient1950"
       xlink:href="#linearGradient2845"
       inkscape:collect="always" />
    <radialGradient
       r="107.2917"
       cy="16.075199"
       cx="46.063999"
       gradientUnits="userSpaceOnUse"
       id="radialGradient2845"
       xlink:href="#XMLID_2_"
       inkscape:collect="always" />
    <radialGradient
       r="107.2917"
       cy="16.075199"
       cx="46.063999"
       gradientUnits="userSpaceOnUse"
       id="radialGradient2843"
       xlink:href="#XMLID_2_"
       inkscape:collect="always" />
    <linearGradient
       gradientUnits="userSpaceOnUse"
       y2="9104.5381"
       x2="4151.3369"
       y1="-502.92627"
       x1="4151.3369"
       id="linearGradient2851"
       xlink:href="#linearGradient2845"
       inkscape:collect="always" />
    <style
       id="style6"
       type="text/css">
   
    .str0 {stroke:#131516;stroke-width:3}
    .str1 {stroke:#131516;stroke-width:42}
    .fil1 {fill:none}
    .fil0 {fill:#131516}
   
  </style>
    <linearGradient
       id="linearGradient2845"
       inkscape:collect="always">
      <stop
         id="stop2847"
         offset="0"
         style="stop-color:#f3f8ff;stop-opacity:1;" />
      <stop
         id="stop2849"
         offset="1"
         style="stop-color:#f3f8ff;stop-opacity:0;" />
    </linearGradient>
    <linearGradient
       id="linearGradient2853">
      <stop
         id="stop2855"
         offset="0"
         style="stop-color:#959ba5;stop-opacity:1;" />
      <stop
         style="stop-color:#79808b;stop-opacity:0.74901962;"
         offset="0.5"
         id="stop2865" />
      <stop
         id="stop2867"
         offset="0.5"
         style="stop-color:#4f535a;stop-opacity:0.62352941;" />
      <stop
         style="stop-color:black;stop-opacity:0.56078434;"
         offset="1"
         id="stop2869" />
    </linearGradient>
    <linearGradient
       id="linearGradient2852"
       inkscape:collect="always">
      <stop
         id="stop2854"
         offset="0"
         style="stop-color:white;stop-opacity:1;" />
      <stop
         id="stop2856"
         offset="1"
         style="stop-color:white;stop-opacity:0;" />
    </linearGradient>
    <linearGradient
       id="linearGradient2902">
      <stop
         id="stop2904"
         offset="0"
         style="stop-color:#757575;stop-opacity:1;" />
      <stop
         style="stop-color:#191919;stop-opacity:1;"
         offset="1"
         id="stop2910" />
    </linearGradient>
    <linearGradient
       id="linearGradient8527">
      <stop
         id="stop8529"
         offset="0"
         style="stop-color:#ffd900;stop-opacity:1;" />
      <stop
         id="stop8531"
         offset="1"
         style="stop-color:#ffffff;stop-opacity:1;" />
    </linearGradient>
    <linearGradient
       inkscape:collect="always"
       xlink:href="#linearGradient3327"
       id="linearGradient3333"
       x1="-96.829102"
       y1="-842.18994"
       x2="-96.829102"
       y2="13865.156"
       gradientUnits="userSpaceOnUse" />
    <filter
       inkscape:collect="always"
       id="filter3423">
      <feGaussianBlur
         inkscape:collect="always"
         stdDeviation="125.69448"
         id="feGaussianBlur3425" />
    </filter>
    <filter
       inkscape:collect="always"
       id="filter3427">
      <feGaussianBlur
         inkscape:collect="always"
         stdDeviation="125.69448"
         id="feGaussianBlur3429" />
    </filter>
    <filter
       inkscape:collect="always"
       id="filter3431">
      <feGaussianBlur
         inkscape:collect="always"
         stdDeviation="125.69448"
         id="feGaussianBlur3433" />
    </filter>
    <filter
       inkscape:collect="always"
       id="filter4420">
      <feGaussianBlur
         inkscape:collect="always"
         stdDeviation="113.322"
         id="feGaussianBlur4422" />
    </filter>
  </defs>
  <sodipodi:namedview
     id="base"
     pagecolor="#ffffff"
     bordercolor="#666666"
     borderopacity="1.0"
     gridtolerance="10000"
     guidetolerance="10"
     objecttolerance="10"
     inkscape:pageopacity="0.0"
     inkscape:pageshadow="2"
     inkscape:zoom="1.4142136"
     inkscape:cx="213.60371"
     inkscape:cy="134.07563"
     inkscape:document-units="px"
     inkscape:current-layer="g2380"
     width="250px"
     height="250px"
     showguides="true"
     inkscape:guide-bbox="true"
     inkscape:window-width="925"
     inkscape:window-height="626"
     inkscape:window-x="4"
     inkscape:window-y="59" />
  <metadata
     id="metadata7">
    <rdf:RDF>
      <cc:Work
         rdf:about="">
        <dc:format>image/svg+xml</dc:format>
        <dc:type
           rdf:resource="http://purl.org/dc/dcmitype/StillImage" />
      </cc:Work>
    </rdf:RDF>
  </metadata>
  <g
     inkscape:label="Layer 1"
     inkscape:groupmode="layer"
     id="layer1">
    <g
       style="fill-rule:evenodd"
       id="g2276"
       transform="translate(3293.063,-19688.38)">
      <path
         style="fill:#ffc402;fill-opacity:1;stroke:black;stroke-width:292.66537476;stroke-linecap:butt;stroke-miterlimit:4;stroke-dasharray:none;stroke-dashoffset:0;stroke-opacity:1"
         sodipodi:cx="4151.3369"
         sodipodi:cy="5780.4712"
         sodipodi:type="arc"
         transform="matrix(0.98311,0,0,0.996917,-31568.86,-1287.247)"
         d="M 9950.418 5780.4712 A 5799.0811 5718.7612 0 1 1  -1647.7441,5780.4712 A 5799.0811 5718.7612 0 1 1  9950.418 5780.4712 z"
         sodipodi:rx="5799.0811"
         id="path1946"
         sodipodi:ry="5718.7612" />
      <path
         style="fill:url(#linearGradient2851);fill-opacity:1;fill-rule:evenodd;stroke:none;stroke-width:73.62577057;stroke-linecap:butt;stroke-miterlimit:4;stroke-dasharray:none;stroke-dashoffset:0;stroke-opacity:1"
         sodipodi:cx="4151.3369"
         sodipodi:cy="5780.4712"
         sodipodi:type="arc"
         transform="matrix(0.895025,0,0,0.907596,-31203.19,-1191.19)"
         d="M 9950.418 5780.4712 A 5799.0811 5718.7612 0 1 1  -1647.7441,5780.4712 A 5799.0811 5718.7612 0 1 1  9950.418 5780.4712 z"
         sodipodi:rx="5799.0811"
         id="path2843"
         sodipodi:ry="5718.7612" />
      <g
         transform="matrix(2.107049,0,0,2.13146,-32411.24,-11903.61)"
         id="Layer 1">
        <path
           class="fil0 str0"
           style="fill:#131516;stroke:#131516;stroke-width:3"
           id="path9"
           d="M 2002,7851 C 1941,7868 1886,7906 1835,7964 C 1784,8023 1759,8088 1759,8158 C 1759,8202 1774,8252 1803,8305 C 1832,8359 1876,8398 1933,8423 C 1952,8427 1961,8437 1961,8451 C 1961,8456 1954,8461 1937,8465 C 1846,8442 1771,8393 1713,8320 C 1655,8246 1625,8162 1623,8066 C 1626,7963 1657,7867 1716,7779 C 1776,7690 1853,7627 1947,7590 L 1878,7235 C 1724,7363 1599,7496 1502,7636 C 1405,7775 1355,7926 1351,8089 C 1353,8162 1368,8233 1396,8301 C 1424,8370 1466,8432 1522,8489 C 1635,8602 1782,8661 1961,8667 C 2022,8663 2087,8652 2157,8634 L 2002,7851 z M 2074,7841 L 2230,8610 C 2384,8548 2461,8413 2461,8207 C 2452,8138 2432,8076 2398,8021 C 2365,7965 2321,7921 2265,7889 C 2209,7857 2146,7841 2074,7841 z M 1869,6801 C 1902,6781 1940,6746 1981,6697 C 2022,6649 2062,6592 2100,6528 C 2139,6463 2170,6397 2193,6330 C 2216,6264 2227,6201 2227,6143 C 2227,6118 2225,6093 2220,6071 C 2216,6035 2205,6007 2186,5988 C 2167,5970 2143,5960 2113,5960 C 2053,5960 1999,5997 1951,6071 C 1914,6135 1883,6211 1861,6297 C 1838,6384 1825,6470 1823,6557 C 1828,6656 1844,6737 1869,6801 z M 1806,6859 C 1761,6697 1736,6532 1731,6364 C 1732,6256 1743,6155 1764,6061 C 1784,5967 1813,5886 1851,5816 C 1888,5746 1931,5693 1979,5657 C 2022,5625 2053,5608 2070,5608 C 2083,5608 2094,5613 2104,5622 C 2114,5631 2127,5646 2143,5666 C 2262,5835 2322,6039 2322,6277 C 2322,6390 2307,6500 2277,6610 C 2248,6719 2205,6823 2148,6920 C 2090,7018 2022,7103 1943,7176 L 2024,7570 C 2068,7565 2098,7561 2115,7561 C 2191,7561 2259,7577 2322,7609 C 2385,7641 2439,7684 2483,7739 C 2527,7793 2561,7855 2585,7925 C 2608,7995 2621,8068 2621,8144 C 2621,8262 2590,8370 2528,8467 C 2466,8564 2373,8635 2248,8681 C 2256,8730 2270,8801 2291,8892 C 2311,8984 2326,9057 2336,9111 C 2346,9165 2350,9217 2350,9268 C 2350,9347 2331,9417 2293,9479 C 2254,9541 2202,9589 2136,9623 C 2071,9657 1999,9674 1921,9674 C 1811,9674 1715,9643 1633,9582 C 1551,9520 1507,9437 1503,9331 C 1506,9284 1517,9240 1537,9198 C 1557,9156 1584,9122 1619,9096 C 1653,9069 1694,9055 1741,9052 C 1780,9052 1817,9063 1852,9084 C 1886,9106 1914,9135 1935,9172 C 1955,9209 1966,9250 1966,9294 C 1966,9353 1946,9403 1906,9444 C 1866,9485 1815,9506 1754,9506 L 1731,9506 C 1770,9566 1834,9597 1923,9597 C 1968,9597 2014,9587 2060,9569 C 2107,9550 2146,9525 2179,9493 C 2212,9461 2234,9427 2243,9391 C 2260,9350 2268,9293 2268,9222 C 2268,9174 2263,9126 2254,9078 C 2245,9031 2231,8968 2212,8890 C 2193,8813 2179,8753 2171,8712 C 2111,8727 2049,8735 1984,8735 C 1875,8735 1772,8713 1675,8668 C 1578,8623 1493,8561 1419,8481 C 1346,8401 1289,8311 1248,8209 C 1208,8108 1187,8002 1186,7892 C 1190,7790 1209,7692 1245,7600 C 1281,7507 1327,7419 1384,7337 C 1441,7255 1500,7180 1561,7113 C 1623,7047 1704,6962 1806,6859 z " />
      </g>
      <g
         transform="matrix(28.29426,0,0,28.69165,-27759.94,4268.905)"
         id="g3">
        <radialGradient
           r="107.2917"
           cy="16.075199"
           id="XMLID_2_"
           gradientUnits="userSpaceOnUse"
           cx="46.063999">
          <stop
             offset="0"
             style="stop-color:#D1F593"
             id="stop6" />
          <stop
             offset="1"
             style="stop-color:#81CE09"
             id="stop8" />
        </radialGradient>
        <path
           style="fill:url(#radialGradient2845)"
           d="M 7.729,57.055 C 16.413,57.055 25.099,57.055 33.784,57.055 C 34.66,57.055 34.198,35.644 34.198,33.647 C 34.2,26.329 31.603,12.245 36.813,6.065 C 42.255,-0.391 55.947,2.112 63.334,2.112 C 72.681,2.112 82.03,2.112 91.379,2.112 C 103.932,2.112 102.733,15.056 102.733,23.709 C 102.733,34.301 102.733,44.894 102.733,55.485 C 102.733,58.211 105.101,57.055 107.584,57.055 C 113.251,57.055 118.915,57.055 124.58,57.055 C 134.001,57.055 138.399,66.772 131.539,73.654 C 125.618,79.595 119.695,85.537 113.773,91.478 C 101.166,104.125 89.128,118.499 75.419,129.954 C 67.314,138.037 59.596,129.846 53.886,124.141 C 46.109,116.37 38.329,108.598 30.552,100.826 C 22.907,93.19 15.264,85.552 7.62,77.916 C 2.664,72.962 -3.668,66.688 2.648,59.41 C 3.939,57.923 5.752,57.055 7.729,57.055"
           id="path10" />
        <path
           style="fill:#67ba06"
           d="M 120.557,75.788 C 115.55,80.81 68.67,128.07 68.439,127.84 C 58.682,118.128 48.924,108.416 39.167,98.704 C 33.354,92.919 27.54,87.134 21.728,81.349 C 18.152,77.788 11.252,72.686 13.823,66.86 C 9.604,66.86 5.386,66.86 1.167,66.86 C 1.859,72.253 7.938,76.514 11.522,80.083 C 18.961,87.49 26.4,94.898 33.839,102.306 C 40.934,109.373 48.031,116.439 55.129,123.504 C 58.985,127.347 62.882,132.539 68.672,132.504 C 74.23,132.57 77.838,127.85 81.523,124.154 C 88.433,117.222 95.342,110.292 102.252,103.357 C 109.729,95.857 117.206,88.357 124.685,80.854 C 128.388,77.136 135.028,72.471 135.757,66.86 C 131.51,66.86 127.266,66.86 123.019,66.86 C 124.288,69.901 122.734,73.594 120.557,75.788"
           id="path12" />
        <path
           style="fill:#b2ed21"
           d="M 127.29,56.413 C 119.58,56.413 111.869,56.413 104.16,56.413 C 103.162,56.413 103.695,39.194 103.695,37.475 C 103.695,29.265 103.695,21.054 103.695,12.841 C 103.695,1.952 93.698,1.47 85.681,1.47 C 75.531,1.47 65.379,1.47 55.228,1.47 C 47.475,1.47 36.932,0.342 35.075,10.582 C 33.784,17.691 34.898,25.827 34.898,33.003 C 34.899,40.807 34.901,48.609 34.901,56.413 C 26.515,56.413 18.13,56.413 9.745,56.413 C 6.644,56.413 3.784,57.725 2.258,60.512 C 1.6,61.715 -0.239,66.86 1.972,66.86 C 4.531,66.86 7.087,66.86 9.644,66.86 C 13.469,66.86 12.748,66.8 15.489,64.791 C 18.655,62.471 24.733,63.421 28.417,63.421 C 33.462,63.421 38.509,63.421 43.553,63.421 C 43.816,63.421 43.681,40.252 43.681,38.471 C 43.681,31.657 41.183,17.062 46.204,11.363 C 51.132,5.771 67.969,8.86 74.378,8.86 C 83.454,8.86 95.137,6.887 95.137,19.759 C 95.137,29.443 95.137,39.13 95.137,48.816 C 95.137,53.661 95.137,58.508 95.137,63.354 C 95.137,63.489 111.069,63.42 112.477,63.42 C 114.925,63.42 117.784,63.117 120.088,64.058 C 123.905,65.621 122.65,66.859 127.223,66.859 C 128.559,66.859 134.81,67.771 135.756,66.859 C 136.461,61.397 133.063,56.413 127.29,56.413"
           id="path14" />
        <path
           style="fill:#739b07"
           d="M 46.274,0.573 C 32.467,0.573 34.263,15.876 34.263,25.179 C 34.263,35.227 34.261,45.272 34.261,55.321 C 34.261,55.942 11.3,55.193 8.691,55.515 C 0.621,55.515 -2.382,67.589 2.811,72.777 C 4.315,74.28 5.818,75.783 7.323,77.286 C 22.723,92.673 38.124,108.059 53.525,123.446 C 59.351,129.266 66.294,137.581 75.355,131.333 C 80.465,127.806 84.721,122.217 89.065,117.86 C 103.255,103.623 117.447,89.386 131.638,75.148 C 137.846,68.92 139.224,55.515 127.149,55.515 C 122.33,55.515 117.511,55.515 112.692,55.515 C 110.179,55.515 104.592,56.994 104.592,53.958 C 104.592,43.901 104.592,33.842 104.592,23.783 C 104.592,14.681 105.866,0.573 92.582,0.573 C 77.373,-0.716 61.549,0.573 46.274,0.573 M 61.3,128.675 C 48.463,115.851 35.628,103.026 22.791,90.201 C 16.844,84.26 10.897,78.318 4.951,72.377 C 1.821,69.248 1.167,64.513 3.43,60.571 C 5.878,56.306 11.202,57.311 15.355,57.311 C 20.83,57.311 26.305,57.311 31.782,57.311 C 34.968,57.311 36.057,58.321 36.057,55.138 C 36.057,44.385 36.058,33.631 36.058,22.878 C 36.058,14.557 34.766,2.369 46.815,2.369 C 56.543,2.369 66.27,2.369 75.998,2.369 C 83.123,2.369 96.339,-0.078 101.044,6.874 C 105.408,13.328 102.796,27.003 102.796,34.2 C 102.796,35.806 102.673,57.312 102.91,57.312 C 111.254,57.312 120.986,55.795 129.176,57.498 C 141.403,60.042 132.227,72.013 127.614,76.639 C 120.003,84.277 112.391,91.913 104.777,99.551 C 97.259,107.093 89.741,114.636 82.223,122.179 C 76.797,127.625 69.27,136.622 61.3,128.675"
           id="path16" />
      </g>
      <g
         style="fill-rule:evenodd"
         transform="matrix(2.107049,0,0,2.13146,-9695.042,-6596.77)"
         id="g2025" />
      <path
         sodipodi:type="arc"
         style="fill:none;fill-opacity:1;fill-rule:evenodd;stroke:#757575;stroke-width:32.24847031;stroke-linecap:butt;stroke-miterlimit:4;stroke-dasharray:none;stroke-dashoffset:0;stroke-opacity:1"
         id="path2211"
         sodipodi:cx="-9172.1201"
         sodipodi:cy="8365.626"
         sodipodi:rx="2648.1812"
         sodipodi:ry="2648.1812"
         d="M -6523.939,8365.626 A 2648.1812,2648.1812 0 1 1 -7469.902,6337.0016"
         transform="matrix(-0.498883,1.017253,-1.017253,-0.498883,-4882.728,22224.69)"
         sodipodi:start="0"
         sodipodi:end="5.4105207"
         sodipodi:open="true" />
      <path
         sodipodi:type="arc"
         style="fill:none;fill-opacity:1;fill-rule:evenodd;stroke:#757575;stroke-width:44.3195076;stroke-linecap:butt;stroke-miterlimit:4;stroke-dasharray:none;stroke-dashoffset:0;stroke-opacity:1"
         id="path3100"
         sodipodi:cx="-9172.1201"
         sodipodi:cy="8365.626"
         sodipodi:rx="2648.1812"
         sodipodi:ry="2648.1812"
         d="M -6523.939,8365.626 A 2648.1812,2648.1812 0 1 1 -7406.1153,6392.281"
         transform="matrix(-0.363005,0.74019,-0.74019,-0.363005,-6002.695,18543.63)"
         sodipodi:start="0"
         sodipodi:end="5.4423957"
         sodipodi:open="true" />
      <path
         sodipodi:type="arc"
         style="fill:none;fill-opacity:1;fill-rule:evenodd;stroke:#757575;stroke-width:74.32069397;stroke-linecap:butt;stroke-miterlimit:4;stroke-dasharray:none;stroke-dashoffset:0;stroke-opacity:1"
         id="path3102"
         sodipodi:cx="-9172.1201"
         sodipodi:cy="8365.626"
         sodipodi:rx="2648.1812"
         sodipodi:ry="2648.1812"
         d="M -6523.939,8365.626 A 2648.1812,2648.1812 0 1 1 -7406.1153,6392.281"
         transform="matrix(-0.21647,0.441396,-0.441396,-0.21647,-7142.107,14528.77)"
         sodipodi:start="0"
         sodipodi:end="5.4423957"
         sodipodi:open="true" />
      <g
         style="fill-rule:evenodd"
         id="g1953"
         transform="translate(13695.81,-6534.694)">
        <path
           sodipodi:open="true"
           transform="matrix(2.330468,0,0,2.497845,28731.62,16184.88)"
           sodipodi:end="7.3303829"
           sodipodi:start="2.0943951"
           d="M -11812.228,12814.278 A 2470.5593,2470.5593 0 1 1 -9341.6687,12814.278"
           sodipodi:ry="2470.5593"
           sodipodi:rx="2470.5593"
           sodipodi:cy="10674.711"
           sodipodi:cx="-10576.948"
           id="path1955"
           style="opacity:1;fill:none;fill-opacity:1;fill-rule:evenodd;stroke:#757575;stroke-width:30.28757477;stroke-linecap:butt;stroke-miterlimit:4;stroke-dasharray:none;stroke-dashoffset:0;stroke-opacity:1"
           sodipodi:type="arc" />
        <path
           sodipodi:open="true"
           transform="matrix(1.820678,0,0,1.951441,23358.88,21907.84)"
           sodipodi:end="7.3303829"
           sodipodi:start="2.0943951"
           d="M -11812.228,12814.278 A 2470.5593,2470.5593 0 1 1 -9341.6687,12814.278"
           sodipodi:ry="2470.5593"
           sodipodi:rx="2470.5593"
           sodipodi:cy="10674.711"
           sodipodi:cx="-10576.948"
           id="path1957"
           style="opacity:1;fill:none;fill-opacity:1;fill-rule:evenodd;stroke:#757575;stroke-width:38.76810074;stroke-linecap:butt;stroke-miterlimit:4;stroke-dasharray:none;stroke-dashoffset:0;stroke-opacity:1"
           sodipodi:type="arc" />
        <path
           sodipodi:open="true"
           transform="matrix(1.310888,0,0,1.405038,17986.15,27630.79)"
           sodipodi:end="7.3303829"
           sodipodi:start="2.0943951"
           d="M -11812.228,12814.278 A 2470.5593,2470.5593 0 1 1 -9341.6687,12814.278"
           sodipodi:ry="2470.5593"
           sodipodi:rx="2470.5593"
           sodipodi:cy="10674.711"
           sodipodi:cx="-10576.948"
           id="path1959"
           style="opacity:1;fill:none;fill-opacity:1;fill-rule:evenodd;stroke:#757575;stroke-width:53.8445816;stroke-linecap:butt;stroke-miterlimit:4;stroke-dasharray:none;stroke-dashoffset:0;stroke-opacity:1"
           sodipodi:type="arc" />
        <path
           sodipodi:open="true"
           transform="matrix(0.801098,0,0,0.858634,12613.41,33353.75)"
           sodipodi:end="7.3303829"
           sodipodi:start="2.0943951"
           d="M -11812.228,12814.278 A 2470.5593,2470.5593 0 1 1 -9341.6687,12814.278"
           sodipodi:ry="2470.5593"
           sodipodi:rx="2470.5593"
           sodipodi:cy="10674.711"
           sodipodi:cx="-10576.948"
           id="path1961"
           style="opacity:1;fill:none;fill-opacity:1;fill-rule:evenodd;stroke:#757575;stroke-width:88.10934448;stroke-linecap:butt;stroke-miterlimit:4;stroke-dasharray:none;stroke-dashoffset:0;stroke-opacity:1"
           sodipodi:type="arc" />
      </g>
      <g
         style="fill-rule:evenodd"
         transform="matrix(-0.572253,-0.766866,0.77575,-0.578884,9946.503,44708.83)"
         id="g1963"
         inkscape:transform-center-y="-2.1376021"
         inkscape:transform-center-x="-1.6644101">
        <path
           d="M 2002,7851 C 1941,7868 1886,7906 1835,7964 C 1784,8023 1759,8088 1759,8158 C 1759,8202 1774,8252 1803,8305 C 1832,8359 1876,8398 1933,8423 C 1952,8427 1961,8437 1961,8451 C 1961,8456 1954,8461 1937,8465 C 1846,8442 1771,8393 1713,8320 C 1655,8246 1625,8162 1623,8066 C 1626,7963 1657,7867 1716,7779 C 1776,7690 1853,7627 1947,7590 L 1878,7235 C 1724,7363 1599,7496 1502,7636 C 1405,7775 1355,7926 1351,8089 C 1353,8162 1368,8233 1396,8301 C 1424,8370 1466,8432 1522,8489 C 1635,8602 1782,8661 1961,8667 C 2022,8663 2087,8652 2157,8634 L 2002,7851 z M 2074,7841 L 2230,8610 C 2384,8548 2461,8413 2461,8207 C 2452,8138 2432,8076 2398,8021 C 2365,7965 2321,7921 2265,7889 C 2209,7857 2146,7841 2074,7841 z M 1869,6801 C 1902,6781 1940,6746 1981,6697 C 2022,6649 2062,6592 2100,6528 C 2139,6463 2170,6397 2193,6330 C 2216,6264 2227,6201 2227,6143 C 2227,6118 2225,6093 2220,6071 C 2216,6035 2205,6007 2186,5988 C 2167,5970 2143,5960 2113,5960 C 2053,5960 1999,5997 1951,6071 C 1914,6135 1883,6211 1861,6297 C 1838,6384 1825,6470 1823,6557 C 1828,6656 1844,6737 1869,6801 z M 1806,6859 C 1761,6697 1736,6532 1731,6364 C 1732,6256 1743,6155 1764,6061 C 1784,5967 1813,5886 1851,5816 C 1888,5746 1931,5693 1979,5657 C 2022,5625 2053,5608 2070,5608 C 2083,5608 2094,5613 2104,5622 C 2114,5631 2127,5646 2143,5666 C 2262,5835 2322,6039 2322,6277 C 2322,6390 2307,6500 2277,6610 C 2248,6719 2205,6823 2148,6920 C 2090,7018 2022,7103 1943,7176 L 2024,7570 C 2068,7565 2098,7561 2115,7561 C 2191,7561 2259,7577 2322,7609 C 2385,7641 2439,7684 2483,7739 C 2527,7793 2561,7855 2585,7925 C 2608,7995 2621,8068 2621,8144 C 2621,8262 2590,8370 2528,8467 C 2466,8564 2373,8635 2248,8681 C 2256,8730 2270,8801 2291,8892 C 2311,8984 2326,9057 2336,9111 C 2346,9165 2350,9217 2350,9268 C 2350,9347 2331,9417 2293,9479 C 2254,9541 2202,9589 2136,9623 C 2071,9657 1999,9674 1921,9674 C 1811,9674 1715,9643 1633,9582 C 1551,9520 1507,9437 1503,9331 C 1506,9284 1517,9240 1537,9198 C 1557,9156 1584,9122 1619,9096 C 1653,9069 1694,9055 1741,9052 C 1780,9052 1817,9063 1852,9084 C 1886,9106 1914,9135 1935,9172 C 1955,9209 1966,9250 1966,9294 C 1966,9353 1946,9403 1906,9444 C 1866,9485 1815,9506 1754,9506 L 1731,9506 C 1770,9566 1834,9597 1923,9597 C 1968,9597 2014,9587 2060,9569 C 2107,9550 2146,9525 2179,9493 C 2212,9461 2234,9427 2243,9391 C 2260,9350 2268,9293 2268,9222 C 2268,9174 2263,9126 2254,9078 C 2245,9031 2231,8968 2212,8890 C 2193,8813 2179,8753 2171,8712 C 2111,8727 2049,8735 1984,8735 C 1875,8735 1772,8713 1675,8668 C 1578,8623 1493,8561 1419,8481 C 1346,8401 1289,8311 1248,8209 C 1208,8108 1187,8002 1186,7892 C 1190,7790 1209,7692 1245,7600 C 1281,7507 1327,7419 1384,7337 C 1441,7255 1500,7180 1561,7113 C 1623,7047 1704,6962 1806,6859 z "
           style="fill:#131516;stroke:#131516;stroke-width:3"
           class="fil0 str0"
           id="path1965" />
      </g>
      <g
         style="fill-rule:evenodd"
         id="g1967"
         transform="matrix(9.508015,-30.38815,30.38815,9.508015,9946.897,37940.73)">
        <path
           id="path1969"
           d="M 138.8,108.2 L 137.3,108.2 L 137.3,42.2 L 138.8,42.2 L 138.8,108.2 z " />
        <path
           id="path1971"
           d="M 161.7,32 C 164.5,36.8 161.5,43.7 155.1,47.5 C 148.7,51.3 141.2,50.5 138.4,45.7 C 135.6,40.9 138.6,34 145,30.2 C 151.4,26.5 158.9,27.3 161.7,32 z M 139.4,45 C 140.5,47 146.1,45.9 151.9,42.5 C 152,42.5 152,42.4 152.1,42.4 C 152.2,42.4 152.3,42.3 152.3,42.3 C 158,38.9 161.7,34.6 160.5,32.7 C 159.4,30.7 153.8,31.8 148,35.2 C 147.9,35.2 147.9,35.3 147.8,35.3 C 147.8,35.3 147.7,35.4 147.7,35.4 C 142,38.7 138.3,43 139.4,45 z " />
      </g>
      <g
         style="fill-rule:evenodd"
         id="g1973"
         transform="matrix(25.95195,18.45342,-18.45342,25.95195,19875.74,30657.64)">
        <path
           id="path1975"
           d="M 51.2,0 L 52.7,0 L 52.7,66 L 51.2,66 L 51.2,0 z " />
        <path
           id="path1977"
           d="M 28.3,76.1 C 25.5,71.3 28.5,64.4 34.9,60.7 C 41.3,57 48.8,57.7 51.6,62.5 C 54.4,67.3 51.4,74.2 45,78 C 38.6,81.7 31.1,80.9 28.3,76.1 z M 50.6,63.1 C 49.5,61.1 43.9,62.2 38.1,65.6 C 38,65.6 38,65.7 37.9,65.7 C 37.8,65.7 37.7,65.8 37.7,65.8 C 32,69.2 28.3,73.5 29.5,75.4 C 30.6,77.4 36.2,76.3 42,72.9 C 42.1,72.9 42.1,72.8 42.2,72.8 C 42.2,72.8 42.3,72.7 42.3,72.7 C 48,69.4 51.7,65.1 50.6,63.1 z " />
      </g>
      <g
         style="fill-rule:evenodd"
         id="g1979"
         transform="matrix(7.365642,-3.363899,3.363899,7.365642,14018.61,30137.13)">
        <path
           id="path1981"
           style="fill:black;fill-opacity:1;fill-rule:nonzero;stroke:none;stroke-width:0.35000002;stroke-linecap:butt;stroke-linejoin:miter;stroke-miterlimit:4;stroke-dashoffset:0;stroke-opacity:1"
           d="M -12.500723,251.95732 L 176.27504,227.4882 L 176.27506,407.17178 C 158.64381,402.98921 133.40748,402.99588 114.04611,419.19361 C 75.284875,451.62124 109.3031,488.0724 153.66396,469.98711 C 178.90651,459.69608 187.33024,443.16435 187.33024,418.22516 L 187.33024,194.86276 L -23.555923,219.33184 L -23.555902,443.09474 C -41.187151,438.91217 -66.423477,438.91884 -85.784854,455.11657 C -124.54608,487.5442 -90.527863,523.99536 -46.167,505.91007 C -20.924455,495.61904 -12.500723,479.08731 -12.500723,454.14812 L -12.500723,251.95732 z " />
      </g>
      <g
         style="fill-rule:evenodd"
         id="g1983"
         transform="matrix(21.1551,-7.414701,7.414701,21.1551,19331.09,44471.33)">
        <path
           id="path1985"
           style="fill:black;fill-opacity:1;fill-rule:evenodd;stroke:none;stroke-width:4.5;stroke-linecap:round;stroke-linejoin:round;stroke-miterlimit:4;stroke-opacity:1"
           d="M 249.32262,-402.8538 L 164.73823,-384.16236 C 167.02516,-387.04544 167.73429,-391.16975 166.65047,-396.07433 C 164.15716,-407.35733 152.70782,-415.17198 142.50978,-412.91842 C 134.71083,-411.19502 131.9832,-405.08549 133.76964,-397.00133 C 136.46577,-384.80052 147.99539,-378.02258 157.84931,-380.14374 C 157.87921,-380.15018 157.911,-380.15737 157.94085,-380.16397 L 226.38342,-395.2884 C 222.74047,-381.88266 218.37221,-371.84303 210.28473,-365.16767 C 202.09577,-358.40857 188.65433,-358.56983 174.143,-368.8305 C 172.85555,-368.89099 172.34645,-368.22222 172.59217,-367.30365 C 197.20691,-348.83948 220.9312,-357.94864 233.23198,-382.40004 C 237.24041,-390.36796 243.50762,-396.90648 249.84857,-400.47373 L 249.32262,-402.8538 z " />
      </g>
      <g
         style="fill-rule:evenodd"
         id="g1987"
         transform="matrix(31.39233,5.325739,-5.325739,31.39233,14156.26,29446.89)"
         inkscape:transform-center-y="2.5772237"
         inkscape:transform-center-x="-0.22573995">
        <path
           id="path1989"
           d="M 138.8,108.2 L 137.3,108.2 L 137.3,42.2 L 138.8,42.2 L 138.8,108.2 z " />
        <path
           id="path1991"
           d="M 161.7,32 C 164.5,36.8 161.5,43.7 155.1,47.5 C 148.7,51.3 141.2,50.5 138.4,45.7 C 135.6,40.9 138.6,34 145,30.2 C 151.4,26.5 158.9,27.3 161.7,32 z " />
      </g>
      <g
         style="fill-rule:evenodd"
         id="g1993"
         transform="matrix(-2.38971,-31.75407,31.75407,-2.38971,12501.19,37850.99)">
        <path
           id="path1995"
           d="M 51.2,0 L 52.7,0 L 52.7,66 L 51.2,66 L 51.2,0 z " />
        <path
           id="path1997"
           d="M 28.3,76.1 C 25.5,71.3 28.5,64.4 34.9,60.7 C 41.3,57 48.8,57.7 51.6,62.5 C 54.4,67.3 51.4,74.2 45,78 C 38.6,81.7 31.1,80.9 28.3,76.1 z " />
      </g>
      <path
         style="fill-rule:evenodd"
         d="M 22708.112,36556.987 C 22635.199,36625.269 21992.688,37148.725 21992.688,37148.725 C 21992.688,37148.725 21715.003,36857.067 21423.496,36856.91 C 21081.886,36856.726 20771.947,37248.271 20771.947,37248.271 L 20721.867,37207.252 C 20808.49,37056.989 20817.737,36801.925 20685.709,36687.983 C 20521.812,36546.697 20271.126,36865.398 20271.126,36865.398 L 20221.043,36828.932 C 20303.089,36719.661 20740.6,36255.308 20954.571,36451.28 C 21086.595,36569.775 21127.511,36715.551 21018.084,36920.458 L 21587.732,36369.635 C 21979.273,36688.682 22093.113,36743.402 22197.873,36743.459 C 22416.503,36743.576 22571.45,36588.797 22671.698,36511.419 C 22712.706,36484.112 22744.616,36434.027 22771.929,36465.926 C 22794.686,36497.821 22758.237,36516.021 22708.112,36556.987 z "
         id="path1999" />
      <g
         id="g2343"
         style="opacity:1"
         inkscape:label="Shadow">
        <g
           transform="translate(-31621.64,-1370.597)"
           id="g2860">
          <g
             transform="matrix(1,0,0,-1,6.95884e-4,23384)"
             id="g1906"
             style="fill-rule:evenodd">
            <path
               sodipodi:ry="5718.7612"
               id="path1908"
               sodipodi:rx="5799.0811"
               d="M 9950.418 5780.4712 A 5799.0811 5718.7612 0 1 1  -1647.7441,5780.4712 A 5799.0811 5718.7612 0 1 1  9950.418 5780.4712 z"
               transform="matrix(0.98311,0,0,0.996917,52.78086,83.3502)"
               sodipodi:type="arc"
               sodipodi:cy="5780.4712"
               sodipodi:cx="4151.3369"
               style="opacity:1;fill:#ffc402;fill-opacity:1;stroke:black;stroke-width:292.66537476;stroke-linecap:butt;stroke-miterlimit:4;stroke-dasharray:none;stroke-dashoffset:0;stroke-opacity:1" />
            <path
               sodipodi:ry="5718.7612"
               id="path1910"
               sodipodi:rx="5799.0811"
               d="M 9950.418 5780.4712 A 5799.0811 5718.7612 0 1 1  -1647.7441,5780.4712 A 5799.0811 5718.7612 0 1 1  9950.418 5780.4712 z"
               transform="matrix(0.895025,0,0,0.907596,418.4484,179.4071)"
               sodipodi:type="arc"
               sodipodi:cy="5780.4712"
               sodipodi:cx="4151.3369"
               style="opacity:1;fill:url(#linearGradient1950);fill-opacity:1;fill-rule:evenodd;stroke:none;stroke-width:73.62577057;stroke-linecap:butt;stroke-miterlimit:4;stroke-dasharray:none;stroke-dashoffset:0;stroke-opacity:1" />
            <g
               transform="matrix(2.107049,0,0,2.13146,-789.6065,-10533.01)"
               id="g1912">
              <path
                 d="M 2002,7851 C 1941,7868 1886,7906 1835,7964 C 1784,8023 1759,8088 1759,8158 C 1759,8202 1774,8252 1803,8305 C 1832,8359 1876,8398 1933,8423 C 1952,8427 1961,8437 1961,8451 C 1961,8456 1954,8461 1937,8465 C 1846,8442 1771,8393 1713,8320 C 1655,8246 1625,8162 1623,8066 C 1626,7963 1657,7867 1716,7779 C 1776,7690 1853,7627 1947,7590 L 1878,7235 C 1724,7363 1599,7496 1502,7636 C 1405,7775 1355,7926 1351,8089 C 1353,8162 1368,8233 1396,8301 C 1424,8370 1466,8432 1522,8489 C 1635,8602 1782,8661 1961,8667 C 2022,8663 2087,8652 2157,8634 L 2002,7851 z M 2074,7841 L 2230,8610 C 2384,8548 2461,8413 2461,8207 C 2452,8138 2432,8076 2398,8021 C 2365,7965 2321,7921 2265,7889 C 2209,7857 2146,7841 2074,7841 z M 1869,6801 C 1902,6781 1940,6746 1981,6697 C 2022,6649 2062,6592 2100,6528 C 2139,6463 2170,6397 2193,6330 C 2216,6264 2227,6201 2227,6143 C 2227,6118 2225,6093 2220,6071 C 2216,6035 2205,6007 2186,5988 C 2167,5970 2143,5960 2113,5960 C 2053,5960 1999,5997 1951,6071 C 1914,6135 1883,6211 1861,6297 C 1838,6384 1825,6470 1823,6557 C 1828,6656 1844,6737 1869,6801 z M 1806,6859 C 1761,6697 1736,6532 1731,6364 C 1732,6256 1743,6155 1764,6061 C 1784,5967 1813,5886 1851,5816 C 1888,5746 1931,5693 1979,5657 C 2022,5625 2053,5608 2070,5608 C 2083,5608 2094,5613 2104,5622 C 2114,5631 2127,5646 2143,5666 C 2262,5835 2322,6039 2322,6277 C 2322,6390 2307,6500 2277,6610 C 2248,6719 2205,6823 2148,6920 C 2090,7018 2022,7103 1943,7176 L 2024,7570 C 2068,7565 2098,7561 2115,7561 C 2191,7561 2259,7577 2322,7609 C 2385,7641 2439,7684 2483,7739 C 2527,7793 2561,7855 2585,7925 C 2608,7995 2621,8068 2621,8144 C 2621,8262 2590,8370 2528,8467 C 2466,8564 2373,8635 2248,8681 C 2256,8730 2270,8801 2291,8892 C 2311,8984 2326,9057 2336,9111 C 2346,9165 2350,9217 2350,9268 C 2350,9347 2331,9417 2293,9479 C 2254,9541 2202,9589 2136,9623 C 2071,9657 1999,9674 1921,9674 C 1811,9674 1715,9643 1633,9582 C 1551,9520 1507,9437 1503,9331 C 1506,9284 1517,9240 1537,9198 C 1557,9156 1584,9122 1619,9096 C 1653,9069 1694,9055 1741,9052 C 1780,9052 1817,9063 1852,9084 C 1886,9106 1914,9135 1935,9172 C 1955,9209 1966,9250 1966,9294 C 1966,9353 1946,9403 1906,9444 C 1866,9485 1815,9506 1754,9506 L 1731,9506 C 1770,9566 1834,9597 1923,9597 C 1968,9597 2014,9587 2060,9569 C 2107,9550 2146,9525 2179,9493 C 2212,9461 2234,9427 2243,9391 C 2260,9350 2268,9293 2268,9222 C 2268,9174 2263,9126 2254,9078 C 2245,9031 2231,8968 2212,8890 C 2193,8813 2179,8753 2171,8712 C 2111,8727 2049,8735 1984,8735 C 1875,8735 1772,8713 1675,8668 C 1578,8623 1493,8561 1419,8481 C 1346,8401 1289,8311 1248,8209 C 1208,8108 1187,8002 1186,7892 C 1190,7790 1209,7692 1245,7600 C 1281,7507 1327,7419 1384,7337 C 1441,7255 1500,7180 1561,7113 C 1623,7047 1704,6962 1806,6859 z "
                 class="fil0 str0"
                 style="fill:#131516;stroke:#131516;stroke-width:3"
                 id="path1914" />
            </g>
            <g
               transform="matrix(28.29426,0,0,28.69165,3861.702,5639.502)"
               id="g1916">
              <radialGradient
                 cx="46.063999"
                 gradientUnits="userSpaceOnUse"
                 id="radialGradient1918"
                 cy="16.075199"
                 r="107.2917">
                <stop
                   id="stop1920"
                   style="stop-color:#D1F593"
                   offset="0" />
                <stop
                   id="stop1922"
                   style="stop-color:#81CE09"
                   offset="1" />
              </radialGradient>
              <path
                 d="M 7.729,57.055 C 16.413,57.055 25.099,57.055 33.784,57.055 C 34.66,57.055 34.198,35.644 34.198,33.647 C 34.2,26.329 31.603,12.245 36.813,6.065 C 42.255,-0.391 55.947,2.112 63.334,2.112 C 72.681,2.112 82.03,2.112 91.379,2.112 C 103.932,2.112 102.733,15.056 102.733,23.709 C 102.733,34.301 102.733,44.894 102.733,55.485 C 102.733,58.211 105.101,57.055 107.584,57.055 C 113.251,57.055 118.915,57.055 124.58,57.055 C 134.001,57.055 138.399,66.772 131.539,73.654 C 125.618,79.595 119.695,85.537 113.773,91.478 C 101.166,104.125 89.128,118.499 75.419,129.954 C 67.314,138.037 59.596,129.846 53.886,124.141 C 46.109,116.37 38.329,108.598 30.552,100.826 C 22.907,93.19 15.264,85.552 7.62,77.916 C 2.664,72.962 -3.668,66.688 2.648,59.41 C 3.939,57.923 5.752,57.055 7.729,57.055"
                 id="path1924"
                 style="fill:url(#radialGradient1952)" />
              <path
                 d="M 120.557,75.788 C 115.55,80.81 68.67,128.07 68.439,127.84 C 58.682,118.128 48.924,108.416 39.167,98.704 C 33.354,92.919 27.54,87.134 21.728,81.349 C 18.152,77.788 11.252,72.686 13.823,66.86 C 9.604,66.86 5.386,66.86 1.167,66.86 C 1.859,72.253 7.938,76.514 11.522,80.083 C 18.961,87.49 26.4,94.898 33.839,102.306 C 40.934,109.373 48.031,116.439 55.129,123.504 C 58.985,127.347 62.882,132.539 68.672,132.504 C 74.23,132.57 77.838,127.85 81.523,124.154 C 88.433,117.222 95.342,110.292 102.252,103.357 C 109.729,95.857 117.206,88.357 124.685,80.854 C 128.388,77.136 135.028,72.471 135.757,66.86 C 131.51,66.86 127.266,66.86 123.019,66.86 C 124.288,69.901 122.734,73.594 120.557,75.788"
                 id="path1926"
                 style="fill:#67ba06" />
              <path
                 d="M 127.29,56.413 C 119.58,56.413 111.869,56.413 104.16,56.413 C 103.162,56.413 103.695,39.194 103.695,37.475 C 103.695,29.265 103.695,21.054 103.695,12.841 C 103.695,1.952 93.698,1.47 85.681,1.47 C 75.531,1.47 65.379,1.47 55.228,1.47 C 47.475,1.47 36.932,0.342 35.075,10.582 C 33.784,17.691 34.898,25.827 34.898,33.003 C 34.899,40.807 34.901,48.609 34.901,56.413 C 26.515,56.413 18.13,56.413 9.745,56.413 C 6.644,56.413 3.784,57.725 2.258,60.512 C 1.6,61.715 -0.239,66.86 1.972,66.86 C 4.531,66.86 7.087,66.86 9.644,66.86 C 13.469,66.86 12.748,66.8 15.489,64.791 C 18.655,62.471 24.733,63.421 28.417,63.421 C 33.462,63.421 38.509,63.421 43.553,63.421 C 43.816,63.421 43.681,40.252 43.681,38.471 C 43.681,31.657 41.183,17.062 46.204,11.363 C 51.132,5.771 67.969,8.86 74.378,8.86 C 83.454,8.86 95.137,6.887 95.137,19.759 C 95.137,29.443 95.137,39.13 95.137,48.816 C 95.137,53.661 95.137,58.508 95.137,63.354 C 95.137,63.489 111.069,63.42 112.477,63.42 C 114.925,63.42 117.784,63.117 120.088,64.058 C 123.905,65.621 122.65,66.859 127.223,66.859 C 128.559,66.859 134.81,67.771 135.756,66.859 C 136.461,61.397 133.063,56.413 127.29,56.413"
                 id="path1928"
                 style="fill:#b2ed21" />
              <path
                 d="M 46.274,0.573 C 32.467,0.573 34.263,15.876 34.263,25.179 C 34.263,35.227 34.261,45.272 34.261,55.321 C 34.261,55.942 11.3,55.193 8.691,55.515 C 0.621,55.515 -2.382,67.589 2.811,72.777 C 4.315,74.28 5.818,75.783 7.323,77.286 C 22.723,92.673 38.124,108.059 53.525,123.446 C 59.351,129.266 66.294,137.581 75.355,131.333 C 80.465,127.806 84.721,122.217 89.065,117.86 C 103.255,103.623 117.447,89.386 131.638,75.148 C 137.846,68.92 139.224,55.515 127.149,55.515 C 122.33,55.515 117.511,55.515 112.692,55.515 C 110.179,55.515 104.592,56.994 104.592,53.958 C 104.592,43.901 104.592,33.842 104.592,23.783 C 104.592,14.681 105.866,0.573 92.582,0.573 C 77.373,-0.716 61.549,0.573 46.274,0.573 M 61.3,128.675 C 48.463,115.851 35.628,103.026 22.791,90.201 C 16.844,84.26 10.897,78.318 4.951,72.377 C 1.821,69.248 1.167,64.513 3.43,60.571 C 5.878,56.306 11.202,57.311 15.355,57.311 C 20.83,57.311 26.305,57.311 31.782,57.311 C 34.968,57.311 36.057,58.321 36.057,55.138 C 36.057,44.385 36.058,33.631 36.058,22.878 C 36.058,14.557 34.766,2.369 46.815,2.369 C 56.543,2.369 66.27,2.369 75.998,2.369 C 83.123,2.369 96.339,-0.078 101.044,6.874 C 105.408,13.328 102.796,27.003 102.796,34.2 C 102.796,35.806 102.673,57.312 102.91,57.312 C 111.254,57.312 120.986,55.795 129.176,57.498 C 141.403,60.042 132.227,72.013 127.614,76.639 C 120.003,84.277 112.391,91.913 104.777,99.551 C 97.259,107.093 89.741,114.636 82.223,122.179 C 76.797,127.625 69.27,136.622 61.3,128.675"
                 id="path1930"
                 style="fill:#739b07" />
            </g>
          </g>
          <rect
             id="rect1954"
             width="11874.688"
             height="13290.516"
             x="-1712"
             y="11692"
             style="opacity:1;fill:url(#linearGradient2858);fill-opacity:1;stroke:none;stroke-width:0.301;stroke-linecap:butt;stroke-miterlimit:4;stroke-dasharray:none;stroke-dashoffset:0;stroke-opacity:1" />
        </g>
      </g>
      <path
         id="path1927"
         inkscape:flatsided="false"
         sodipodi:r1="2525.8442"
         inkscape:rounded="0.38"
         d="M -9961.2291,5541.7684 C -10554.747,6303.7976 -9333.8049,7741.0461 -10164.306,8182.9833 C -10994.808,8624.9204 -11576.605,6737.6184 -12530.329,6630.3882 C -13484.053,6523.158 -13773.113,8254.6871 -14549.553,7721.0077 C -15325.993,7187.3283 -13957.296,6232.0705 -14337.872,5353.0048 C -14718.448,4473.9391 -16460.055,4623.2861 -16438.982,3686.1108 C -16417.909,2748.9354 -14769.51,3650.2577 -14249.816,2837.2251 C -13730.121,2024.1925 -14655.158,442.01452 -13783.834,113.61516 C -12912.509,-214.7842 -12814.437,1440.2262 -11876.771,1513.4235 C -10939.105,1586.6208 -10625.923,67.158235 -9833.6292,613.21195 C -9041.3356,1159.2657 -10441.787,2282.3313 -10069.235,3178.0777 C -9696.6824,4073.824 -7898.775,3649.1592 -8056.5841,4565.9857 C -8214.3932,5482.8122 -9367.711,4779.7392 -9961.2291,5541.7684 z "
         inkscape:randomized="0.05"
         sodipodi:sides="6"
         sodipodi:r2="4354.9038"
         transform="matrix(1.831195,0,0,1.821253,42658.77,-1930.533)"
         style="opacity:1;fill-opacity:1;fill-rule:evenodd;stroke-width:0.301;stroke-linecap:butt;stroke-miterlimit:4;stroke-dasharray:none;stroke-dashoffset:0;stroke-opacity:1"
         sodipodi:arg1="0.61680122"
         sodipodi:cy="4134.9951"
         sodipodi:cx="-12175.545"
         sodipodi:arg2="1.1404"
         sodipodi:type="star" />
      <g
         id="g2995"
         transform="matrix(28.29426,0,0,28.69165,2171.427,39886.94)"
         style="fill-rule:evenodd">
        <radialGradient
           cx="46.063999"
           gradientUnits="userSpaceOnUse"
           id="radialGradient2997"
           cy="16.075199"
           r="107.2917">
          <stop
             id="stop2999"
             style="stop-color:#D1F593"
             offset="0" />
          <stop
             id="stop3001"
             style="stop-color:#81CE09"
             offset="1" />
        </radialGradient>
        <g
           id="g3013"
           transform="translate(4.852021,12.75964)"
           style="fill-rule:evenodd">
          <radialGradient
             cx="46.063999"
             gradientUnits="userSpaceOnUse"
             id="radialGradient3015"
             cy="16.075199"
             r="107.2917">
            <stop
               id="stop3017"
               style="stop-color:#D1F593"
               offset="0" />
            <stop
               id="stop3019"
               style="stop-color:#81CE09"
               offset="1" />
          </radialGradient>
        </g>
      </g>
      <g
         id="g2380"
         transform="matrix(1.110202e-2,0,0,1.110202e-2,-3166.988,19697.73)">
        <rect
           style="fill:url(#linearGradient3333);fill-rule:evenodd;stroke:none;stroke-width:91.15573883px;stroke-linecap:butt;stroke-linejoin:miter;stroke-opacity:1;fill-opacity:1.0"
           id="rect2420"
           width="22427.27"
           height="22427.27"
           x="-11310.464"
           y="-796.61206" />
        <path
           sodipodi:type="arc"
           style="fill:none;fill-opacity:1;stroke:black;stroke-width:365.375;stroke-miterlimit:4;stroke-dasharray:none;stroke-opacity:1;filter:url(#filter4420)"
           id="path7528"
           sodipodi:cx="844.80194"
           sodipodi:cy="37984.445"
           sodipodi:rx="7372.1123"
           sodipodi:ry="7372.1123"
           d="M 844.80214,45356.558 A 7372.1123,7372.1123 0 1 1 8216.9142,37984.445"
           transform="matrix(0.748797,0,0,0.748797,-4971.302,-22397.3)"
           sodipodi:start="1.5707963"
           sodipodi:end="6.2831853"
           sodipodi:open="true" />
        <g
           transform="matrix(0.748797,0,0,0.748797,-7486.261,-25997.46)"
           id="g3116">
          <path
             sodipodi:open="true"
             sodipodi:type="arc"
             style="opacity:1;fill:none;fill-opacity:1;fill-rule:evenodd;stroke:#757575;stroke-width:30.28757477;stroke-linecap:butt;stroke-miterlimit:4;stroke-dasharray:none;stroke-dashoffset:0;stroke-opacity:1"
             id="path3106"
             sodipodi:cx="-10576.948"
             sodipodi:cy="10674.711"
             sodipodi:rx="2470.5593"
             sodipodi:ry="2470.5593"
             d="M -11812.228,12814.278 A 2470.5593,2470.5593 0 1 1 -8179.2291,11270.199"
             sodipodi:start="2.0943951"
             sodipodi:end="6.5266163"
             transform="matrix(2.330468,0,0,2.497845,28731.62,16184.88)" />
          <path
             sodipodi:open="true"
             sodipodi:type="arc"
             style="opacity:1;fill:none;fill-opacity:1;fill-rule:evenodd;stroke:#757575;stroke-width:38.76810074;stroke-linecap:butt;stroke-miterlimit:4;stroke-dasharray:none;stroke-dashoffset:0;stroke-opacity:1"
             id="path3110"
             sodipodi:cx="-10576.948"
             sodipodi:cy="10674.711"
             sodipodi:rx="2470.5593"
             sodipodi:ry="2470.5593"
             d="M -11812.228,12814.278 A 2470.5593,2470.5593 0 1 1 -8244.5828,11489.41"
             sodipodi:start="2.0943951"
             sodipodi:end="6.6192379"
             transform="matrix(1.820678,0,0,1.951441,23358.88,21907.84)" />
          <path
             sodipodi:open="true"
             sodipodi:type="arc"
             style="opacity:1;fill:none;fill-opacity:1;fill-rule:evenodd;stroke:#757575;stroke-width:53.8445816;stroke-linecap:butt;stroke-miterlimit:4;stroke-dasharray:none;stroke-dashoffset:0;stroke-opacity:1"
             id="path3112"
             sodipodi:cx="-10576.948"
             sodipodi:cy="10674.711"
             sodipodi:rx="2470.5593"
             sodipodi:ry="2470.5593"
             d="M -11812.228,12814.278 A 2470.5593,2470.5593 0 1 1 -8409.6969,11860.748"
             sodipodi:start="2.0943951"
             sodipodi:end="6.783918"
             transform="matrix(1.310888,0,0,1.405038,17986.15,27630.79)" />
          <path
             sodipodi:type="arc"
             style="opacity:1;fill:none;fill-opacity:1;fill-rule:evenodd;stroke:#757575;stroke-width:88.10934448;stroke-linecap:butt;stroke-miterlimit:4;stroke-dasharray:none;stroke-dashoffset:0;stroke-opacity:1"
             id="path3114"
             sodipodi:cx="-10576.948"
             sodipodi:cy="10674.711"
             sodipodi:rx="2470.5593"
             sodipodi:ry="2470.5593"
             d="M -11812.228,12814.278 A 2470.5593,2470.5593 0 1 1 -9341.6687,12814.278"
             sodipodi:start="2.0943951"
             sodipodi:end="7.3303829"
             transform="matrix(0.801098,0,0,0.858634,12613.41,33353.75)"
             sodipodi:open="true" />
        </g>
        <g
           inkscape:transform-center-x="-1.2463054"
           inkscape:transform-center-y="-1.6006322"
           id="g2116"
           transform="matrix(-0.428501,-0.574227,0.580879,-0.433466,-10293.73,12373.51)"
           style="fill-rule:evenodd">
          <path
             id="path2118"
             class="fil0 str0"
             style="fill:#131516;stroke:#131516;stroke-width:3"
             d="M 2002,7851 C 1941,7868 1886,7906 1835,7964 C 1784,8023 1759,8088 1759,8158 C 1759,8202 1774,8252 1803,8305 C 1832,8359 1876,8398 1933,8423 C 1952,8427 1961,8437 1961,8451 C 1961,8456 1954,8461 1937,8465 C 1846,8442 1771,8393 1713,8320 C 1655,8246 1625,8162 1623,8066 C 1626,7963 1657,7867 1716,7779 C 1776,7690 1853,7627 1947,7590 L 1878,7235 C 1724,7363 1599,7496 1502,7636 C 1405,7775 1355,7926 1351,8089 C 1353,8162 1368,8233 1396,8301 C 1424,8370 1466,8432 1522,8489 C 1635,8602 1782,8661 1961,8667 C 2022,8663 2087,8652 2157,8634 L 2002,7851 z M 2074,7841 L 2230,8610 C 2384,8548 2461,8413 2461,8207 C 2452,8138 2432,8076 2398,8021 C 2365,7965 2321,7921 2265,7889 C 2209,7857 2146,7841 2074,7841 z M 1869,6801 C 1902,6781 1940,6746 1981,6697 C 2022,6649 2062,6592 2100,6528 C 2139,6463 2170,6397 2193,6330 C 2216,6264 2227,6201 2227,6143 C 2227,6118 2225,6093 2220,6071 C 2216,6035 2205,6007 2186,5988 C 2167,5970 2143,5960 2113,5960 C 2053,5960 1999,5997 1951,6071 C 1914,6135 1883,6211 1861,6297 C 1838,6384 1825,6470 1823,6557 C 1828,6656 1844,6737 1869,6801 z M 1806,6859 C 1761,6697 1736,6532 1731,6364 C 1732,6256 1743,6155 1764,6061 C 1784,5967 1813,5886 1851,5816 C 1888,5746 1931,5693 1979,5657 C 2022,5625 2053,5608 2070,5608 C 2083,5608 2094,5613 2104,5622 C 2114,5631 2127,5646 2143,5666 C 2262,5835 2322,6039 2322,6277 C 2322,6390 2307,6500 2277,6610 C 2248,6719 2205,6823 2148,6920 C 2090,7018 2022,7103 1943,7176 L 2024,7570 C 2068,7565 2098,7561 2115,7561 C 2191,7561 2259,7577 2322,7609 C 2385,7641 2439,7684 2483,7739 C 2527,7793 2561,7855 2585,7925 C 2608,7995 2621,8068 2621,8144 C 2621,8262 2590,8370 2528,8467 C 2466,8564 2373,8635 2248,8681 C 2256,8730 2270,8801 2291,8892 C 2311,8984 2326,9057 2336,9111 C 2346,9165 2350,9217 2350,9268 C 2350,9347 2331,9417 2293,9479 C 2254,9541 2202,9589 2136,9623 C 2071,9657 1999,9674 1921,9674 C 1811,9674 1715,9643 1633,9582 C 1551,9520 1507,9437 1503,9331 C 1506,9284 1517,9240 1537,9198 C 1557,9156 1584,9122 1619,9096 C 1653,9069 1694,9055 1741,9052 C 1780,9052 1817,9063 1852,9084 C 1886,9106 1914,9135 1935,9172 C 1955,9209 1966,9250 1966,9294 C 1966,9353 1946,9403 1906,9444 C 1866,9485 1815,9506 1754,9506 L 1731,9506 C 1770,9566 1834,9597 1923,9597 C 1968,9597 2014,9587 2060,9569 C 2107,9550 2146,9525 2179,9493 C 2212,9461 2234,9427 2243,9391 C 2260,9350 2268,9293 2268,9222 C 2268,9174 2263,9126 2254,9078 C 2245,9031 2231,8968 2212,8890 C 2193,8813 2179,8753 2171,8712 C 2111,8727 2049,8735 1984,8735 C 1875,8735 1772,8713 1675,8668 C 1578,8623 1493,8561 1419,8481 C 1346,8401 1289,8311 1248,8209 C 1208,8108 1187,8002 1186,7892 C 1190,7790 1209,7692 1245,7600 C 1281,7507 1327,7419 1384,7337 C 1441,7255 1500,7180 1561,7113 C 1623,7047 1704,6962 1806,6859 z " />
        </g>
        <g
           transform="matrix(7.11957,-22.75454,22.75454,7.11957,-10293.43,7305.59)"
           id="d_half_note">
          <path
             d="M 138.8,108.2 L 137.3,108.2 L 137.3,42.2 L 138.8,42.2 L 138.8,108.2 z "
             id="path3244" />
          <path
             d="M 161.7,32 C 164.5,36.8 161.5,43.7 155.1,47.5 C 148.7,51.3 141.2,50.5 138.4,45.7 C 135.6,40.9 138.6,34 145,30.2 C 151.4,26.5 158.9,27.3 161.7,32 z M 139.4,45 C 140.5,47 146.1,45.9 151.9,42.5 C 152,42.5 152,42.4 152.1,42.4 C 152.2,42.4 152.3,42.3 152.3,42.3 C 158,38.9 161.7,34.6 160.5,32.7 C 159.4,30.7 153.8,31.8 148,35.2 C 147.9,35.2 147.9,35.3 147.8,35.3 C 147.8,35.3 147.7,35.4 147.7,35.4 C 142,38.7 138.3,43 139.4,45 z "
             id="path3246" />
        </g>
        <g
           transform="matrix(19.43273,13.81786,-13.81786,19.43273,-2858.744,1852.03)"
           id="a_half_note">
          <path
             d="M 51.2,0 L 52.7,0 L 52.7,66 L 51.2,66 L 51.2,0 z "
             id="path3249" />
          <path
             d="M 28.3,76.1 C 25.5,71.3 28.5,64.4 34.9,60.7 C 41.3,57 48.8,57.7 51.6,62.5 C 54.4,67.3 51.4,74.2 45,78 C 38.6,81.7 31.1,80.9 28.3,76.1 z M 50.6,63.1 C 49.5,61.1 43.9,62.2 38.1,65.6 C 38,65.6 38,65.7 37.9,65.7 C 37.8,65.7 37.7,65.8 37.7,65.8 C 32,69.2 28.3,73.5 29.5,75.4 C 30.6,77.4 36.2,76.3 42,72.9 C 42.1,72.9 42.1,72.8 42.2,72.8 C 42.2,72.8 42.3,72.7 42.3,72.7 C 48,69.4 51.7,65.1 50.6,63.1 z "
             id="path3251" />
        </g>
        <g
           transform="matrix(5.515368,-2.518876,2.518876,5.515368,-7244.546,1462.274)"
           id="g3390">
          <path
             d="M -12.500723,251.95732 L 176.27504,227.4882 L 176.27506,407.17178 C 158.64381,402.98921 133.40748,402.99588 114.04611,419.19361 C 75.284875,451.62124 109.3031,488.0724 153.66396,469.98711 C 178.90651,459.69608 187.33024,443.16435 187.33024,418.22516 L 187.33024,194.86276 L -23.555923,219.33184 L -23.555902,443.09474 C -41.187151,438.91217 -66.423477,438.91884 -85.784854,455.11657 C -124.54608,487.5442 -90.527863,523.99536 -46.167,505.91007 C -20.924455,495.61904 -12.500723,479.08731 -12.500723,454.14812 L -12.500723,251.95732 z "
             style="fill:black;fill-opacity:1;fill-rule:nonzero;stroke:none;stroke-width:0.35000002;stroke-linecap:butt;stroke-linejoin:miter;stroke-miterlimit:4;stroke-dashoffset:0;stroke-opacity:1"
             id="path2796" />
        </g>
        <g
           transform="matrix(15.84087,-5.552103,5.552103,15.84087,-3266.576,12195.68)"
           id="g3467">
          <path
             d="M 249.32262,-402.8538 L 164.73823,-384.16236 C 167.02516,-387.04544 167.73429,-391.16975 166.65047,-396.07433 C 164.15716,-407.35733 152.70782,-415.17198 142.50978,-412.91842 C 134.71083,-411.19502 131.9832,-405.08549 133.76964,-397.00133 C 136.46577,-384.80052 147.99539,-378.02258 157.84931,-380.14374 C 157.87921,-380.15018 157.911,-380.15737 157.94085,-380.16397 L 226.38342,-395.2884 C 222.74047,-381.88266 218.37221,-371.84303 210.28473,-365.16767 C 202.09577,-358.40857 188.65433,-358.56983 174.143,-368.8305 C 172.85555,-368.89099 172.34645,-368.22222 172.59217,-367.30365 C 197.20691,-348.83948 220.9312,-357.94864 233.23198,-382.40004 C 237.24041,-390.36796 243.50762,-396.90648 249.84857,-400.47373 L 249.32262,-402.8538 z "
             style="fill:black;fill-opacity:1;fill-rule:evenodd;stroke:none;stroke-width:4.5;stroke-linecap:round;stroke-linejoin:round;stroke-miterlimit:4;stroke-opacity:1"
             id="path1883" />
        </g>
        <g
           inkscape:transform-center-x="-0.16903346"
           inkscape:transform-center-y="1.9298164"
           transform="matrix(23.50647,3.987894,-3.987894,23.50647,-7141.477,945.4245)"
           id="d_quarter_note">
          <path
             d="M 138.8,108.2 L 137.3,108.2 L 137.3,42.2 L 138.8,42.2 L 138.8,108.2 z "
             id="path3568" />
          <path
             d="M 161.7,32 C 164.5,36.8 161.5,43.7 155.1,47.5 C 148.7,51.3 141.2,50.5 138.4,45.7 C 135.6,40.9 138.6,34 145,30.2 C 151.4,26.5 158.9,27.3 161.7,32 z "
             id="path3570" />
        </g>
        <g
           transform="matrix(-1.789407,-23.77734,23.77734,-1.789407,-8380.784,7238.386)"
           id="a_quarter_note">
          <path
             d="M 51.2,0 L 52.7,0 L 52.7,66 L 51.2,66 L 51.2,0 z "
             id="path3573" />
          <path
             d="M 28.3,76.1 C 25.5,71.3 28.5,64.4 34.9,60.7 C 41.3,57 48.8,57.7 51.6,62.5 C 54.4,67.3 51.4,74.2 45,78 C 38.6,81.7 31.1,80.9 28.3,76.1 z "
             id="path3575" />
        </g>
        <path
           id="quarter_rest"
           d="M -737.8939,6269.4447 C -792.4909,6320.5741 -1273.6006,6712.5361 -1273.6006,6712.5361 C -1273.6006,6712.5361 -1481.5303,6494.1436 -1699.8094,6494.0261 C -1955.6064,6493.8883 -2187.687,6787.0758 -2187.687,6787.0758 L -2225.1867,6756.361 C -2160.3242,6643.8445 -2153.4001,6452.8534 -2252.2621,6367.5341 C -2374.9876,6261.7396 -2562.7002,6500.3818 -2562.7002,6500.3818 L -2600.2023,6473.0762 C -2538.7669,6391.2544 -2211.16,6043.5485 -2050.9392,6190.2917 C -1952.0796,6279.0203 -1921.4426,6388.1769 -2003.3808,6541.6106 L -1576.8306,6129.1562 C -1283.646,6368.0574 -1198.4028,6409.0316 -1119.9591,6409.0743 C -956.249,6409.1619 -840.2252,6293.2639 -765.1606,6235.3236 C -734.4531,6214.8762 -710.5591,6177.3727 -690.108,6201.2585 C -673.0668,6225.1414 -700.3605,6238.7695 -737.8939,6269.4447 z " />
        <path
           style="fill:none;fill-opacity:0.75;fill-rule:evenodd;stroke:black;stroke-width:55.53908539;stroke-linecap:butt;stroke-linejoin:miter;stroke-miterlimit:4;stroke-dasharray:none;stroke-opacity:1"
           d="M -5332.438,10178.925 L -4339.1146,6471.7936 L -3345.7914,10178.925"
           id="path2004" />
        <path
           style="fill:none;fill-opacity:0.75;fill-rule:evenodd;stroke:black;stroke-width:55.53908539;stroke-linecap:butt;stroke-linejoin:miter;stroke-miterlimit:4;stroke-dasharray:none;stroke-opacity:1"
           d="M -4339.1146,6471.7936 L -4339.1146,10178.925"
           id="path2006" />
        <path
           style="fill:none;fill-opacity:0.75;fill-rule:evenodd;stroke:black;stroke-width:57.85961151;stroke-linecap:butt;stroke-linejoin:miter;stroke-miterlimit:4;stroke-dasharray:none;stroke-opacity:1"
           d="M -5187.4537,9659.1119 L -3504.4682,9659.1119"
           id="path2008"
           sodipodi:nodetypes="cc" />
        <path
           style="fill:none;fill-opacity:0.75;fill-rule:evenodd;stroke:black;stroke-width:55.53908539;stroke-linecap:butt;stroke-linejoin:miter;stroke-miterlimit:4;stroke-dasharray:none;stroke-opacity:1"
           d="M -4920.6257,8567.6555 L -3781.8331,8567.6555"
           id="path2010" />
        <path
           style="fill:none;fill-opacity:0.75;fill-rule:evenodd;stroke:black;stroke-width:55.53908539;stroke-linecap:butt;stroke-linejoin:miter;stroke-miterlimit:4;stroke-dasharray:none;stroke-opacity:1"
           d="M -4690.4443,7719.6186 L -3999.8998,7719.6186"
           id="path2012" />
        <path
           style="fill:none;fill-opacity:0.75;fill-rule:evenodd;stroke:black;stroke-width:55.53908539;stroke-linecap:butt;stroke-linejoin:miter;stroke-miterlimit:4;stroke-dasharray:none;stroke-opacity:1"
           d="M -5176.1066,9655.9564 L -4339.1146,8555.5407 L -3496.0653,9640.94"
           id="path2014"
           sodipodi:nodetypes="ccc" />
        <path
           style="fill:none;fill-opacity:0.75;fill-rule:evenodd;stroke:black;stroke-width:55.53908539;stroke-linecap:butt;stroke-linejoin:miter;stroke-miterlimit:4;stroke-dasharray:none;stroke-opacity:1"
           d="M -4666.2146,7719.6186 L -4339.1146,8578.2913 L -4012.0146,7719.6186"
           id="path2016" />
        <path
           sodipodi:type="arc"
           style="opacity:1;fill:black;fill-opacity:1;fill-rule:evenodd;stroke:black;stroke-width:0.20299999;stroke-linecap:butt;stroke-miterlimit:4;stroke-dasharray:none;stroke-dashoffset:0;stroke-opacity:1"
           id="path2915"
           sodipodi:cx="916.65405"
           sodipodi:cy="38178.82"
           sodipodi:rx="600.83521"
           sodipodi:ry="600.83521"
           d="M 1517.4893 38178.82 A 600.83521 600.83521 0 1 1  315.81885,38178.82 A 600.83521 600.83521 0 1 1  1517.4893 38178.82 z"
           transform="matrix(0.499198,0,0,0.499198,-4779.998,-13192.58)" />
        <path
           style="opacity:0.5;fill:none;fill-opacity:1;fill-rule:evenodd;stroke:lime;stroke-width:507.37994385;stroke-linecap:square;stroke-linejoin:miter;stroke-miterlimit:4;stroke-dasharray:none;stroke-opacity:1;filter:url(#filter3431)"
           d="M -2862.3983,3075.7854 L -1687.5818,5110.627 L -512.7653,3075.7854"
           id="path4718" />
        <path
           style="opacity:0.7;fill:none;fill-opacity:1;fill-rule:evenodd;stroke:lime;stroke-width:507.37994385;stroke-linecap:square;stroke-linejoin:miter;stroke-miterlimit:4;stroke-dasharray:none;stroke-opacity:1;filter:url(#filter3427)"
           d="M -2862.3983,5441.2306 L -1687.5818,7476.0722 L -512.7653,5441.2306"
           id="path5617" />
        <path
           style="fill:none;fill-opacity:1;fill-rule:evenodd;stroke:lime;stroke-width:507.37994385;stroke-linecap:square;stroke-linejoin:miter;stroke-miterlimit:4;stroke-dasharray:none;stroke-opacity:1;filter:url(#filter3423)"
           d="M -2862.3983,7732.1096 L -1687.5818,9766.9512 L -512.7653,7732.1096"
           id="path5621" />
        <text
           xml:space="preserve"
           style="font-size:1080.88439941px;font-style:normal;font-weight:normal;fill:#000000;fill-opacity:1;stroke:none;stroke-width:1px;stroke-linecap:butt;stroke-linejoin:miter;stroke-opacity:1;font-family:Bitstream Vera Sans"
           x="995.31635"
           y="1128.173"
           id="text3339"><tspan
             sodipodi:role="line"
             id="tspan3341"
             x="995.31635"
             y="1128.173">Linux Port:</tspan><tspan
             sodipodi:role="line"
             x="995.31635"
             y="2479.2785"
             id="tspan3343">Version 1.1 Beta</tspan></text>
        <text
           xml:space="preserve"
           style="font-size:1080.88439941px;font-style:normal;font-weight:normal;fill:#000000;fill-opacity:1;stroke:none;stroke-width:1px;stroke-linecap:butt;stroke-linejoin:miter;stroke-opacity:1;font-family:Bitstream Vera Sans"
           x="-9948.6387"
           y="15286.633"
           id="text3345"><tspan
             sodipodi:role="line"
             x="-9948.6387"
             y="15286.633"
             id="tspan3349">TheLastRipper developer team:</tspan><tspan
             sodipodi:role="line"
             x="-9948.6387"
             y="16637.738"
             id="tspan3353">   Rene A.S. Josefsen.</tspan><tspan
             sodipodi:role="line"
             x="-9948.6387"
             y="17988.844"
             id="tspan3355">   Mike F. Jensen.</tspan><tspan
             sodipodi:role="line"
             x="-9948.6387"
             y="19339.949"
             id="tspan3357">   Jonas F. Jensen.</tspan><tspan
             sodipodi:role="line"
             x="-9948.6387"
             y="20691.055"
             id="tspan2320">   Andreas Langmann.</tspan><tspan
             sodipodi:role="line"
             x="-9948.6387"
             y="22042.16"
             id="tspan2318" /></text>
        <text
           xml:space="preserve"
           style="font-size:741.54296875px;font-style:normal;font-weight:normal;fill:black;fill-opacity:1;stroke:none;stroke-width:1px;stroke-linecap:butt;stroke-linejoin:miter;stroke-opacity:1;font-family:Bitstream Vera Sans"
           x="-10182.239"
           y="12685.713"
           id="text3363"><tspan
             sodipodi:role="line"
             x="-10182.239"
             y="12685.713"
             id="tspan3407">One day men will look back and say i gave birth to</tspan><tspan
             sodipodi:role="line"
             x="-10182.239"
             y="13612.642"
             id="tspan3411"> the twentieth century.</tspan></text>
        <text
           xml:space="preserve"
           style="font-size:617.61230469px;font-style:normal;font-weight:normal;fill:black;fill-opacity:1;stroke:none;stroke-width:1px;stroke-linecap:butt;stroke-linejoin:miter;stroke-opacity:1;font-family:Bitstream Vera Sans"
           x="3244.4451"
           y="14008.584"
           id="text3367"><tspan
             sodipodi:role="line"
             id="tspan3369"
             x="3244.4451"
             y="14008.584">- Jack The Ripper, 1888.</tspan></text>
      </g>
    </g>
  </g>
</svg>
